<!--?xml version="1.0" standalone="no"?-->
              <svg id="sw-js-blob-svg" viewBox="0 0 100 100" xmlns="http://www.w3.org/2000/svg" version="1.1">
                    <defs> 
                        <linearGradient id="sw-gradient" x1="0" x2="1" y1="1" y2="0">
                            <stop id="stop1" stop-color="rgba(34, 193, 195, 1)" offset="0%"></stop>
                            <stop id="stop2" stop-color="rgba(253, 187, 45, 1)" offset="100%"></stop>
                        </linearGradient>
                    </defs>
                <path fill="url(#sw-gradient)" d="M22.2,-33.7C29.1,-30,35.4,-24.5,39.2,-17.5C43,-10.5,44.3,-2,42.7,5.8C41.1,13.6,36.6,20.7,31.3,27.4C26,34.1,19.8,40.4,12.6,42.2C5.3,44.1,-3.1,41.6,-10.8,38.6C-18.6,35.5,-25.7,32,-31.3,26.5C-37,21.1,-41.3,13.8,-43.2,5.8C-45,-2.3,-44.5,-11.2,-40.8,-18.3C-37,-25.4,-30.1,-30.7,-22.7,-34.2C-15.4,-37.8,-7.7,-39.5,-0.1,-39.5C7.6,-39.4,15.2,-37.4,22.2,-33.7Z" width="100%" height="100%" transform="translate(50 50)" stroke-width="0" style="transition: all 0.3s ease 0s;" stroke="url(#sw-gradient)"></path>
              </svg>